<?xml version="1.0"?>
<svg xmlns="http://www.w3.org/2000/svg" viewBox="0 0 64 64" fill="currentColor">
	<title>Ezine Logo</title>
	<description>
		A circled heart with an ellipsis in the centre.
	</description>
	<defs>
		<mask id="heartmask" x="0" y="0" width="1" height="1" fill="white">
			<path d="
				M 0 0    l 8 0    q -6 2 -8 8    z
				M 64 0    l -8 0    q 6 2 8 8    z
				M 0 64    l 8 0    q -6 -2 -8 -8    z
				M 64 64    l -8 0    q 6 -2 8 -8    z
			"/>
			<circle cx="32" cy="32" r="30"/>
			<path d="
				M 8 23
				a 12 12 0 1 1 24 0
				a 12 12 0 1 1 24 0
				c 0 18 -24 22 -24 36
				c 0 -14 -24 -18 -24 -36
				z
			" fill="black"/>
			<circle cx="21.5" cy="31" r="3.5"/>
			<circle cx="32" cy="31" r="3.5"/>
			<circle cx="42.5" cy="31" r="3.5"/>
		</mask>
	</defs>
	<rect x="0" y="0" width="64" height="64" mask="url(#heartmask)"/>
</svg>
