<?xml version="1.0"?>
<!-- Derived from the following Mutant Standard 0.3.1 emoji : cassette -->
<!-- See https://mutant.tech/ for more. -->
<!-- Licensed under a Creative Commons Attribution-NonCommercial-ShareAlike 4.0 International License <https://creativecommons.org/licenses/by-nc-sa/4.0/>. -->
<svg xmlns="http://www.w3.org/2000/svg" viewBox="0 0 32 32">
	<title>Cassette Tape Emoji</title>
	<description>
		An ( audio ) cassette tape.
	</description>
	<metadata>
		<rdf:RDF xmlns:cc="http://web.resource.org/cc/" xmlns:rdf="http://www.w3.org/1999/02/22-rdf-syntax-ns#" xmlns:dc = "http://purl.org/dc/elements/1.1/">
			<rdf:Description rdf:about="#svg-cassette">
				<dc:title>Mutant Standard emoji v0.3.1</dc:title>
			</rdf:Description>
			<cc:work rdf:about="#svg-cassette">
				<cc:license rdf:resource="http://creativecommons.org/licenses/by-nc-sa/4.0/"/>
				<cc:attributionName>Dzuk (with modifications by Kyebego)</cc:attributionName>
				<cc:attributionURL>http://mutant.tech/</cc:attributionURL>
			</cc:work>
		</rdf:RDF>
	</metadata>
	<defs>
		<mask id="svg-cassette.mask" x="0" y="0" width="1" height="1" fill="white">
			<rect x="0" y="5" width="32" height="23"/>
			<path fill="hsl(0,0%,50%)" d="M30,26l-2.764,0l-1.209,-0.197l-1.027,0.197l-18,0l-1,-0.229l-1.236,0.229l-2.764,0l0,-19l28,0l0,19Z"/>
			<rect fill="hsl(0,0%,25%)" x="3" y="8" width="26" height="12"/>
			<g fill="hsl(0,0%,75%)">
				<path d="M4.764,26l2.447,-4.894c0.079,-0.146 0.164,-0.283 0.272,-0.409c0.268,-0.312 0.631,-0.537 1.03,-0.637c0.161,-0.04 0.322,-0.055 0.487,-0.06c4.708,0 9.418,-0.141 14.123,0.004c0.165,0.015 0.324,0.04 0.482,0.09c0.392,0.124 0.741,0.371 0.989,0.699c0.075,0.099 0.136,0.203 0.195,0.313l2.447,4.894l-2.236,0l-2,-4l-14,0l-2,4l-2.236,0Z"/>
				<rect x="9.5" y="12" width="13" height="5"/>
				<circle cx="11" cy="24" r="1"/>
				<circle cx="21" cy="24" r="1"/>
			</g>
			<circle cx="22.5" cy="14.5" r="2.5"/>
			<circle cx="9.5" cy="14.5" r="2.5"/>
			<rect x="13" y="13" width="6" height="2"/>
		</mask>
	</defs>
	<rect id="svg-cassette" fill="currentColor" x="0" y="0" width="32" height="32" mask="url(#svg-cassette.mask)"/>
</svg>
