<?xml version="1.0"?>
<!-- Derived from the following Mutant Standard 0.3.1 emoji : red_heart -->
<!-- See https://mutant.tech/ for more. -->
<!-- Licensed under a Creative Commons Attribution-NonCommercial-ShareAlike 4.0 International License <https://creativecommons.org/licenses/by-nc-sa/4.0/>. -->
<svg xmlns="http://www.w3.org/2000/svg" viewBox="0 0 32 32">
	<title>Heart Emoji</title>
	<description>
		A glistening heart.
	</description>
	<metadata>
		<rdf:RDF xmlns:cc="http://web.resource.org/cc/" xmlns:rdf="http://www.w3.org/1999/02/22-rdf-syntax-ns#" xmlns:dc = "http://purl.org/dc/elements/1.1/">
			<rdf:Description rdf:about="#svg-heart">
				<dc:title>Mutant Standard emoji v0.3.1</dc:title>
			</rdf:Description>
			<cc:work rdf:about="#svg-heart">
				<cc:license rdf:resource="http://creativecommons.org/licenses/by-nc-sa/4.0/"/>
				<cc:attributionName>Dzuk (with modifications by Kyebego)</cc:attributionName>
				<cc:attributionURL>http://mutant.tech/</cc:attributionURL>
			</cc:work>
		</rdf:RDF>
	</metadata>
	<defs>
		<mask id="svg-heart.mask" x="0" y="0" width="1" height="1" fill="white">
			<path d="M10.216,2.784C12.352,2.831 14.456,3.7 16,5.176 18.536,2.703 22.629,2.066 25.796,3.653 28.997,5.148 31.039,8.738 30.685,12.254 30.512,14.559 29.321,16.703 27.605,18.224 23.736,22.092 19.868,25.96 16,29.828 11.81,25.617 7.576,21.447 3.412,17.21 1.068,14.576 0.607,10.484 2.309,7.396 3.807,4.525 6.979,2.676 10.216,2.784ZM9.941,6.782C7.547,6.758 5.385,8.816 5.291,11.208 5.161,12.806 5.973,14.337 7.177,15.348 10.118,18.289 13.059,21.231 16,24.172 19.211,20.939 22.467,17.748 25.65,14.489 27.195,12.687 27.03,9.74 25.293,8.122 23.633,6.428 20.684,6.336 18.922,7.925 17.931,8.874 16.977,9.863 16,10.828 14.874,9.770 13.877,8.565 12.664,7.607 11.870,7.06 10.905,6.769 9.941,6.782Z"/>
			<path fill="hsl(0,0%,75%)" d="M16,27c0,0 -6.194,-6.194 -10.751,-10.751c-1.26,-1.26 -1.967,-2.968 -1.967,-4.749c0,-1.781 0.707,-3.489 1.967,-4.749c0.001,-0.001 0.001,-0.001 0.002,-0.002c1.26,-1.26 2.968,-1.967 4.749,-1.967c1.781,0 3.489,0.707 4.749,1.967c0.732,0.732 1.251,1.251 1.251,1.251c0,0 0.519,-0.519 1.251,-1.251c1.26,-1.26 2.968,-1.967 4.749,-1.967c1.781,0 3.489,0.707 4.749,1.967c0.001,0.001 0.001,0.001 0.002,0.002c1.26,1.26 1.967,2.968 1.967,4.749c0,1.781 -0.707,3.489 -1.967,4.749c-4.557,4.557 -10.751,10.751 -10.751,10.751Z"/>
			<path fill="black" d="M14,24l-8.25,-8.25c-2.347,-2.347 -2.347,-6.153 0,-8.5c0,0 0,0 0,0c2.347,-2.347 6.153,-2.347 8.5,0c0.984,0.984 1.75,1.75 1.75,1.75c0,0 1.062,-0.91 2.358,-2.021c1.207,-1.035 2.786,-1.527 4.367,-1.36c0.082,0.008 0.163,0.018 0.244,0.03c-0.188,2.363 -1.21,4.592 -2.898,6.28c-1.208,1.208 -2.589,2.589 -3.728,3.728c-1.5,1.5 -2.343,3.535 -2.343,5.657l0,2.686Z"/>
			<path fill="hsl(0,0%,75%)" d="M10.083,4.782c1.949,0.004 3.819,0.944 5.096,2.397 0.29,0.22 0.579,0.715 0.869,0.773C17.071,6.91 18.095,5.776 19.506,5.262c2.559,-1.065 5.725,-0.311 7.53,1.792 1.86,2.048 2.218,5.275 0.852,7.681 -0.776,1.419 -2.113,2.396 -3.191,3.568C21.798,21.202 18.899,24.100 16,27 12.311,23.294 8.588,19.621 4.92,15.895 3.077,13.825 2.754,10.587 4.152,8.194 5.323,6.085 7.671,4.734 10.083,4.782Zm-0.142,2C7.652,6.764 5.554,8.641 5.318,10.918 5.092,12.535 5.820,14.177 7.05,15.221 10.033,18.205 13.017,21.188 16,24.172 19.2,20.955 22.434,17.77 25.613,14.533 27.121,12.812 27.069,9.999 25.498,8.335 23.998,6.604 21.198,6.273 19.336,7.607 18.267,8.433 17.399,9.489 16.416,10.412 16.118,10.924 15.82,10.773 15.522,10.35 14.56,9.447 13.712,8.413 12.664,7.607 11.87,7.06 10.905,6.769 9.941,6.782Z"/>
		</mask>
	</defs>
	<rect id="svg-heart" fill="currentColor" x="0" y="0" width="32" height="32" mask="url(#svg-heart.mask)"/>
</svg>
