<?xml version="1.0"?>
<!-- Derived from the following Mutant Standard 0.3.1 emoji : love_letter -->
<!-- See https://mutant.tech/ for more. -->
<!-- Licensed under a Creative Commons Attribution-NonCommercial-ShareAlike 4.0 International License <https://creativecommons.org/licenses/by-nc-sa/4.0/>. -->
<svg xmlns="http://www.w3.org/2000/svg" viewBox="0 0 32 32">
	<title>Love Letter Emoji</title>
	<description>
		A letter, with a heart above it, symbolizing love.
	</description>
	<metadata>
		<rdf:RDF xmlns:cc="http://web.resource.org/cc/" xmlns:rdf="http://www.w3.org/1999/02/22-rdf-syntax-ns#" xmlns:dc = "http://purl.org/dc/elements/1.1/">
			<rdf:Description rdf:about="#svg-loveletter">
				<dc:title>Mutant Standard emoji v0.3.1</dc:title>
			</rdf:Description>
			<cc:work rdf:about="#svg-loveletter">
				<cc:license rdf:resource="http://creativecommons.org/licenses/by-nc-sa/4.0/"/>
				<cc:attributionName>Dzuk (with modifications by Kyebego)</cc:attributionName>
				<cc:attributionURL>http://mutant.tech/</cc:attributionURL>
			</cc:work>
		</rdf:RDF>
	</metadata>
	<defs>
		<clipPath id="svg-loveletter.clip">
			<path d="M30,14c0,-0.53 -0.211,-1.039 -0.586,-1.414c-0.375,-0.375 -0.884,-0.586 -1.414,-0.586c-5.154,0 -18.846,0 -24,0c-0.53,0 -1.039,0.211 -1.414,0.586c-0.375,0.375 -0.586,0.884 -0.586,1.414c0,3.463 0,10.537 0,14c0,0.53 0.211,1.039 0.586,1.414c0.375,0.375 0.884,0.586 1.414,0.586c5.154,0 18.846,0 24,0c0.53,0 1.039,-0.211 1.414,-0.586c0.375,-0.375 0.586,-0.884 0.586,-1.414c0,-3.463 0,-10.537 0,-14Z"/>
		</clipPath>
		<mask id="svg-loveletter.mask" x="0" y="0" width="1" height="1" fill="black">
			<path fill="none" stroke="white" stroke-width="4" stroke-linecap="round" stroke-linejoin="round" stroke-miterlimit="1.5" d="M11.002,12l-1.98,-1.987c-1.65,-1.656 -1.647,-4.335 0.005,-5.988c0.001,-0.001 0.002,-0.001 0.002,-0.002c0.797,-0.796 1.878,-1.244 3.005,-1.242c1.127,0.001 2.207,0.451 3.002,1.25c0.555,0.558 0.964,0.969 0.964,0.969c0,0 0.45,-0.444 1.049,-1.035c1.654,-1.633 4.316,-1.628 5.964,0.011c0.001,0 0.001,0 0.001,0.001c0.801,0.796 1.252,1.877 1.254,3.006c0.001,1.129 -0.446,2.212 -1.245,3.01l-2.006,2.007l6.983,0c0.53,0 1.039,0.211 1.414,0.586c0.375,0.375 0.586,0.884 0.586,1.414c0,3.463 0,10.537 0,14c0,0.53 -0.211,1.039 -0.586,1.414c-0.375,0.375 -0.884,0.586 -1.414,0.586c-5.154,0 -18.846,0 -24,0c-0.53,0 -1.039,-0.211 -1.414,-0.586c-0.375,-0.375 -0.586,-0.884 -0.586,-1.414c0,-3.463 0,-10.537 0,-14c0,-0.53 0.211,-1.039 0.586,-1.414c0.375,-0.375 0.884,-0.586 1.414,-0.586l7.002,0Z"/>
			<path d="M30,14c0,-0.53 -0.211,-1.039 -0.586,-1.414c-0.375,-0.375 -0.884,-0.586 -1.414,-0.586c-5.154,0 -18.846,0 -24,0c-0.53,0 -1.039,0.211 -1.414,0.586c-0.375,0.375 -0.586,0.884 -0.586,1.414c0,3.463 0,10.537 0,14c0,0.53 0.211,1.039 0.586,1.414c0.375,0.375 0.884,0.586 1.414,0.586c5.154,0 18.846,0 24,0c0.53,0 1.039,-0.211 1.414,-0.586c0.375,-0.375 0.586,-0.884 0.586,-1.414c0,-3.463 0,-10.537 0,-14Z"/>
			<g clip-path="url(#svg-loveletter.clip)" stroke-width="2px">
				<path fill="none" stroke="hsl(0,0%,25%)" d="M2,30l14,-13l14,13"/>
				<path stroke="hsl(0,0%,50%)" d="M2,12c0,0 7.348,6.298 11.397,9.769c1.498,1.284 3.708,1.284 5.206,0c4.049,-3.471 11.397,-9.769 11.397,-9.769"/>
			</g>
			<path fill="hsl(0,0%,75%)" d="M16,17.017c0,0 -4.042,-4.057 -6.977,-7.003c-1.65,-1.656 -1.648,-4.337 0.006,-5.99c0,-0.001 0.001,-0.002 0.002,-0.002c0.796,-0.797 1.877,-1.243 3.003,-1.242c1.126,0.001 2.206,0.451 3,1.249c0.556,0.559 0.966,0.971 0.966,0.971c0,0 0.448,-0.442 1.046,-1.032c1.656,-1.635 4.32,-1.63 5.97,0.01c0.001,0.001 0.001,0.001 0.001,0.002c0.8,0.795 1.251,1.875 1.252,3.003c0.002,1.128 -0.445,2.21 -1.243,3.007c-2.956,2.957 -7.026,7.027 -7.026,7.027Z"/>
		</mask>
	</defs>
	<rect id="svg-loveletter" fill="currentColor" x="0" y="0" width="32" height="32" mask="url(#svg-loveletter.mask)"/>
</svg>
