<?xml version="1.0"?>
<!-- Derived from the following Mutant Standard 0.3.1 emoji : scream -->
<!-- See https://mutant.tech/ for more. -->
<!-- Licensed under a Creative Commons Attribution-NonCommercial-ShareAlike 4.0 International License <https://creativecommons.org/licenses/by-nc-sa/4.0/>. -->
<svg xmlns="http://www.w3.org/2000/svg" viewBox="0 0 32 32">
	<title>Scream Emoji</title>
	<description>
		A person screaming in fear.
	</description>
	<metadata>
		<rdf:RDF xmlns:cc="http://web.resource.org/cc/" xmlns:rdf="http://www.w3.org/1999/02/22-rdf-syntax-ns#" xmlns:dc = "http://purl.org/dc/elements/1.1/">
			<rdf:Description rdf:about="#svg-scream">
				<dc:title>Mutant Standard emoji v0.3.1</dc:title>
			</rdf:Description>
			<cc:work rdf:about="#svg-scream">
				<cc:license rdf:resource="http://creativecommons.org/licenses/by-nc-sa/4.0/"/>
				<cc:attributionName>Dzuk (with modifications by Kyebego)</cc:attributionName>
				<cc:attributionURL>http://mutant.tech/</cc:attributionURL>
			</cc:work>
		</rdf:RDF>
	</metadata>
	<defs>
		<mask id="svg-scream.mask" x="0" y="0" width="1" height="1" fill="white">
			<path d="M16.195,0.001c5.114,0.015 10.083,2.887 12.675,7.291 1.608,2.625 2.272,5.745 2.129,8.803 0.03,4.836 -2.931,9.511 -7.292,11.59 -2.166,1.1 -4.627,1.417 -7.03,1.315 -2.323,0 -4.714,0.126 -6.929,-0.71C5.084,26.729 1.549,22.313 1.076,17.413 0.799,14.389 1.113,11.244 2.48,8.496 4.705,3.783 9.539,0.436 14.741,0.052 15.225,0.011 15.71,-0.004 16.195,0.001Zm-0.338,4 c -4.277,-0 -8.372,2.766 -9.993,6.718 -0.928,2.156 -1.035,4.583 -0.723,6.882 0.615,3.724 3.82,6.822 7.564,7.308 1.864,0.191 3.746,0.05 5.617,0.09 3.722,-0.07 7.195,-2.728 8.266,-6.288 0.552,-1.78 0.492,-3.693 0.263,-5.522 C 26.181,8.815 22.608,5.091 18.272,4.235 17.479,4.068 16.667,3.99 15.857,4.001 Z"/>
			<path fill="black" d="M7.965,25.201c-2.991,-1.965 -4.965,-5.349 -4.965,-9.195c0,-0.334 0,-0.67 0,-1.006c0,-7.18 5.82,-13 13,-13l0.086,0c0.135,0.158 0.914,0.703 0.914,0.703c0,0 1.995,-0.329 1.992,-0.357c0.421,0.099 0.834,0.218 1.237,0.357c0.149,0.23 1.771,1.297 1.771,1.297l1,0.043c0.396,0.253 0.777,0.527 1.142,0.821c0.087,0.163 0.858,1.136 0.858,1.136l2,2.067c1.267,2.006 2,4.383 2,6.931c0,0.337 0,0.673 0,1.008c0,3.846 -1.974,7.23 -4.965,9.195l-0.035,0.023c-1.724,1.123 -3.783,1.776 -5.994,1.776c-1.328,0 -2.684,0 -4.012,0c-2.211,0 -4.27,-0.653 -5.994,-1.776l-0.035,-0.023Z"/>
			<path fill="hsl(0,0%,75%)" d="M24.142,4.864c1.12,0.901 2.088,1.983 2.858,3.203l0,1.433c0,0.398 -0.158,0.779 -0.439,1.061c-0.282,0.281 -0.663,0.439 -1.061,0.439c-0.398,0 -0.779,-0.158 -1.061,-0.439c-0.281,-0.282 -0.439,-0.663 -0.439,-1.061c0,-1.181 0,-2.819 0,-4c0,-0.222 0.049,-0.439 0.142,-0.636Zm-3.913,-2.161c0.982,0.337 1.911,0.789 2.771,1.34l0,4.457c0,0.398 -0.158,0.779 -0.439,1.061c-0.282,0.281 -0.663,0.439 -1.061,0.439c-0.398,0 -0.779,-0.158 -1.061,-0.439c-0.281,-0.282 -0.439,-0.663 -0.439,-1.061c0,-1.43 0,-3.57 0,-5c0,-0.284 0.081,-0.56 0.229,-0.797Zm-4.143,-0.703c0.999,0.007 1.972,0.126 2.906,0.346c0.005,0.051 0.008,0.102 0.008,0.154c0,1.43 0,3.57 0,5c0,0.398 -0.158,0.779 -0.439,1.061c-0.282,0.281 -0.663,0.439 -1.061,0.439c-0.398,0 -0.779,-0.158 -1.061,-0.439c-0.281,-0.282 -0.439,-0.663 -0.439,-1.061c0,-1.43 0,-3.57 0,-5c0,-0.172 0.029,-0.341 0.086,-0.5Z"/>
			<path fill="black" d="M27,23.5c0,-1.381 -1.119,-2.5 -2.5,-2.5c-0.663,0 -1.299,0.263 -1.768,0.732c-0.469,0.469 -0.732,1.105 -0.732,1.768c0,2.663 0,6.5 0,6.5l6,0c0,0 -0.615,-2.461 -0.881,-3.522c-0.079,-0.318 -0.119,-0.643 -0.119,-0.97c0,-0.479 0,-1.243 0,-2.008ZM5,23.5c0,-1.381 1.119,-2.5 2.5,-2.5c0.663,0 1.299,0.263 1.768,0.732c0.469,0.469 0.732,1.105 0.732,1.768c0,2.663 0,6.5 0,6.5l-6,0c0,0 0.615,-2.461 0.881,-3.522c0.079,-0.318 0.119,-0.643 0.119,-0.97c0,-0.479 0,-1.243 0,-2.008Z"/>
			<path d="M24.615,19.001c1.715,0.02 3.348,1.129 4.014,2.707 0.346,0.755 0.4,1.597 0.371,2.415 0.02,0.603 -0.05,1.213 0.05,1.81 0.504,2.023 1.011,4.045 1.516,6.067 -3.521,0 -7.041,0 -10.562,0 0,-2.919 -0.01,-5.838 0,-8.756 0.08,-1.727 1.253,-3.339 2.873,-3.942 0.551,-0.214 1.145,-0.316 1.735,-0.301zM24.5,21c-1.192,-0.02 -2.302,0.923 -2.468,2.103 -0.07,0.766 -0.01,1.538 -0.03,2.306 0,1.531 0,3.061 0,4.591 2,0 4,0 6,0C27.689,28.714 27.338,27.436 27.051,26.145 26.948,25.346 27.023,24.536 27,23.733 27.081,22.746 26.551,21.737 25.662,21.286 25.306,21.098 24.903,21 24.5,21Zm7.612,19.001c1.714,0.02 3.35,1.126 4.015,2.706 0.347,0.755 0.403,1.597 0.373,2.416 0,2.626 0,5.251 0,7.877 -3.521,0 -7.041,0 -10.562,0 0.51,-2.063 1.041,-4.122 1.539,-6.188 0.068,-0.932 -0.023,-1.871 0.05,-2.803 0.17,-1.754 1.475,-3.325 3.167,-3.816 0.458,-0.14 0.939,-0.203 1.418,-0.192zM7.612,19.001c1.714,0.02 3.35,1.126 4.015,2.706 0.347,0.755 0.403,1.597 0.373,2.416 0,2.626 0,5.251 0,7.877 -3.521,0 -7.041,0 -10.562,0 0.51,-2.063 1.041,-4.122 1.539,-6.188 0.068,-0.932 -0.023,-1.871 0.05,-2.803 0.17,-1.754 1.475,-3.325 3.167,-3.816 0.458,-0.14 0.939,-0.203 1.418,-0.192zM7.5,21C6.29,20.974 5.167,21.951 5.024,23.152 4.953,24.098 5.05,25.051 4.97,25.996 4.811,26.905 4.536,27.789 4.328,28.688 4.219,29.125 4.109,29.563 4,30c2,0 4,0 6,0 -0.01,-2.24 0.01,-4.48 -0.01,-6.719 -0.081,-1.199 -1.137,-2.227 -2.338,-2.276 -0.051,-0 -0.102,-0 -0.153,-0zM26,13c0,-3.314 -2.686,-6 -6,-6c-1.105,0 -2,0.895 -2,2c0,0.313 0,0.65 0,1c0,3.314 2.686,6 6,6c1.105,0 2,-0.895 2,-2c0,-0.313 0,-0.65 0,-1ZM6,13c0,-3.314 2.686,-6 6,-6c1.105,0 2,0.895 2,2c0,0.313 0,0.65 0,1c0,3.314 -2.686,6 -6,6c-1.105,0 -2,-0.895 -2,-2c0,-0.313 0,-0.65 0,-1ZM13.774,23.012c-0.497,-0.551 -0.774,-1.267 -0.774,-2.012c0,-0.965 0,-2.035 0,-3c0,-0.796 0.316,-1.559 0.879,-2.121c0.562,-0.563 1.325,-0.879 2.121,-0.879c0.796,0 1.559,0.316 2.121,0.879c0.563,0.562 0.879,1.325 0.879,2.121c0,0.965 0,2.035 0,3c0,0.745 -0.277,1.461 -0.774,2.012c-0.551,-0.631 -3.901,-0.631 -4.452,0Z"/>
			<path fill="hsl(0,0%,50%)" d="M13.774,23.012c0.551,-0.631 1.357,-1.012 2.226,-1.012c0,0 0,0 0,0c0.869,0 1.675,0.381 2.226,1.012c-0.034,0.037 -0.069,0.074 -0.105,0.109c-0.562,0.563 -1.325,0.879 -2.121,0.879c-0.796,0 -1.559,-0.316 -2.121,-0.879c-0.036,-0.035 -0.071,-0.072 -0.105,-0.109Z"/>
		</mask>
	</defs>
	<rect id="svg-scream" fill="currentColor" x="0" y="0" width="32" height="32" mask="url(#svg-scream.mask)"/>
</svg>
