<?xml version="1.0"?>
<!-- Derived from the following Mutant Standard 0.3.1 emoji : thinking -->
<!-- See https://mutant.tech/ for more. -->
<!-- Licensed under a Creative Commons Attribution-NonCommercial-ShareAlike 4.0 International License <https://creativecommons.org/licenses/by-nc-sa/4.0/>. -->
<svg xmlns="http://www.w3.org/2000/svg" viewBox="0 0 32 32">
	<title>Thinking Emoji</title>
	<description>
		A thinking face.
	</description>
	<metadata>
		<rdf:RDF xmlns:cc="http://web.resource.org/cc/" xmlns:rdf="http://www.w3.org/1999/02/22-rdf-syntax-ns#" xmlns:dc = "http://purl.org/dc/elements/1.1/">
			<rdf:Description rdf:about="#svg-thinking">
				<dc:title>Mutant Standard emoji v0.3.1</dc:title>
			</rdf:Description>
			<cc:work rdf:about="#svg-thinking">
				<cc:license rdf:resource="http://creativecommons.org/licenses/by-nc-sa/4.0/"/>
				<cc:attributionName>Dzuk (with modifications by Kyebego)</cc:attributionName>
				<cc:attributionURL>http://mutant.tech/</cc:attributionURL>
			</cc:work>
		</rdf:RDF>
	</metadata>
	<defs>
		<mask id="svg-thinking.mask" x="0" y="0" width="1" height="1" fill="white">
			<path d="M16.193,0.001c5.148,0.015 10.147,2.926 12.727,7.375 1.573,2.608 2.219,5.695 2.08,8.721 0.193,3.569 -1.047,7.214 -3.53,9.809C24.884,28.701 21.033,30.191 17.242,30 14.74,29.982 12.158,30.193 9.766,29.291 5.154,27.758 1.647,23.432 1.099,18.603 0.946,16.871 0.954,15.118 1.086,13.385 1.6,8.13 5.142,3.327 9.993,1.252c1.946,-0.854 4.075,-1.28 6.2,-1.251zm-0.336,4c-4.306,-0 -8.425,2.805 -10.026,6.796 -0.848,1.909 -0.883,4.026 -0.831,6.076 -0.097,3.639 2.259,7.177 5.658,8.483 2.159,0.929 4.548,0.578 6.827,0.644 3.305,0.189 6.637,-1.567 8.281,-4.452C26.812,19.833 27.106,17.784 27,15.806 27.182,12.674 26.055,9.472 23.811,7.256 21.744,5.15 18.808,3.946 15.857,4.001Z"/>
			<path fill="black" d="M16,2c7.18,0 13,5.82 13,13c0,0.669 0,1.338 0,2c0,2.917 -1.159,5.715 -3.222,7.778c-1.176,1.176 -2.59,2.058 -4.13,2.6l-11.648,-0.131c-1.403,-0.548 -2.692,-1.383 -3.778,-2.469c-2.063,-2.063 -3.222,-4.861 -3.222,-7.778c0,-0.662 0,-1.331 0,-2c0,-7.18 5.82,-13 13,-13l0,0Z"/>
			<path fill="hsl(0,0%,25%)" d="M10,27.247l0,-5.361c0,-0.749 0.419,-1.435 1.085,-1.778c0.666,-0.343 1.468,-0.285 2.077,0.151c1.855,1.325 3.838,2.741 3.838,2.741c0,0 0,0 0,0c0.634,0 1.234,0.281 1.64,0.768l3.008,3.61c-1.161,0.408 -2.394,0.622 -3.648,0.622c-1.324,0 -2.676,0 -4,0c-1.382,0 -2.737,-0.26 -4,-0.753Z"/>
			<path d="M11,7.5c0,-0.398 -0.158,-0.779 -0.439,-1.061c-0.282,-0.281 -0.663,-0.439 -1.061,-0.439c-0.398,0 -0.779,0.158 -1.061,0.439c-0.281,0.282 -0.439,0.663 -0.439,1.061c0,1.181 0,2.819 0,4c0,0.398 0.158,0.779 0.439,1.061c0.282,0.281 0.663,0.439 1.061,0.439c0.398,0 0.779,-0.158 1.061,-0.439c0.281,-0.282 0.439,-0.663 0.439,-1.061c0,-1.181 0,-2.819 0,-4ZM23,8c0,0 -2.541,0 -4,0c-0.265,0 -0.52,0.105 -0.707,0.293c-0.188,0.187 -0.293,0.442 -0.293,0.707c0,0.552 0.448,1 1,1c0.5,0 1,0 1,0c0,0 0,0.751 0,1.502c0,0.397 0.158,0.778 0.439,1.059c0.281,0.281 0.662,0.439 1.059,0.439c0.001,0 0.003,0 0.004,0c0.827,0 1.498,-0.671 1.498,-1.498c0,-1.473 0,-3.502 0,-3.502ZM16.467,15.001c1.339,0.03 2.647,0.627 3.556,1.608 0.27,0.29 0.585,0.542 0.823,0.859 0.325,0.482 0.11,1.21 -0.424,1.438 -0.417,0.206 -0.943,0.06 -1.228,-0.298 -0.505,-0.482 -0.952,-1.061 -1.611,-1.34C17.064,17.02 16.481,16.979 15.916,17c-1.674,-0 -3.348,0 -5.022,-0 -0.571,-0.04 -1.006,-0.644 -0.873,-1.2 0.09,-0.498 0.598,-0.847 1.096,-0.794 1.783,0 3.567,0 5.35,0z"/>
			<path fill="black" d="M10,22c0,0 -0.432,0.216 -0.894,0.447c-0.678,0.339 -1.106,1.032 -1.106,1.789c0,1.357 0,3.509 0,4.764c0,0.265 0.105,0.52 0.293,0.707c0.187,0.188 0.442,0.293 0.707,0.293c0.871,0 2.129,0 3,0c0.552,0 1,-0.448 1,-1c0,-1.185 0,-3 0,-3c0,0 1.815,0 3,0c0.552,0 1,-0.448 1,-1c0,-0.265 -0.105,-0.52 -0.293,-0.707c-0.187,-0.188 -0.442,-0.293 -0.707,-0.293c-1.934,0 -6,0 -6,0l0,-2Z"/>
			<path d="M12,22c1.432,0 2.865,-0.02 4.296,0.01 1.373,0.112 2.558,1.281 2.686,2.653 0.178,1.373 -0.731,2.784 -2.056,3.187C16.306,28.07 15.642,27.982 15,28c-0,0.797 0.08,1.644 -0.33,2.368 -0.526,1.067 -1.726,1.718 -2.905,1.632 -1.044,-0.02 -2.092,0.03 -3.135,-0.02 -1.396,-0.146 -2.565,-1.39 -2.625,-2.792 -0.01,-1.743 -0.015,-3.488 0,-5.231C6.097,22.482 7.077,21.129 8.427,20.55 9.618,19.955 10.809,19.359 12,18.764 12,19.843 12,20.921 12,22ZM9.106,22.447C8.347,22.809 7.919,23.671 8,24.496 c 0.01,1.55 -0.015,3.102 0.011,4.652 0.067,0.554 0.636,0.93 1.175,0.852 1.001,-0.01 2.005,0.02 3.004,-0.02 0.534,-0.09 0.886,-0.644 0.811,-1.168 0,-0.938 0,-1.876 0,-2.814 1.062,-0.01 2.128,0.02 3.189,-0.02 0.66,-0.1 1.035,-0.936 0.669,-1.495C16.633,24.08 16.138,23.949 15.703,24 13.802,24 11.901,24 10,24c0,-0.667 0,-1.333 0,-2 -0.298,0.149 -0.596,0.298 -0.894,0.447z"/>
		</mask>
	</defs>
	<rect id="svg-thinking" fill="currentColor" x="0" y="0" width="32" height="32" mask="url(#svg-thinking.mask)"/>
</svg>
